{
  "accessors": [
    {
      "bufferView": 2,
      "componentType": 5126,
      "count": 1508,
      "max": [
        0.6015530228614807,
        0.7523450255393982,
        -1.3925399780273438
      ],
      "min": [
        -0.5993379950523376,
        -0.8624569773674011,
        -3.7486610412597656
      ],
      "type": "VEC3"
    },
    {
      "bufferView": 2,
      "byteOffset": 18096,
      "componentType": 5126,
      "count": 1508,
      "max": [
        1.0,
        0.9985672831535339,
        0.9994586110115051
      ],
      "min": [
        -0.999768078327179,
        -0.996949315071106,
        -0.9980992674827576
      ],
      "type": "VEC3"
    },
    {
      "bufferView": 3,
      "componentType": 5126,
      "count": 1508,
      "max": [
        0.998486340045929,
        0.9994032979011536,
        0.9942516684532166,
        1.0
      ],
      "min": [
        -0.9991840720176697,
        -0.9918931722640991,
        -0.9999625086784363,
        1.0
      ],
      "type": "VEC4"
    },
    {
      "bufferView": 1,
      "componentType": 5126,
      "count": 1508,
      "max": [
        0.6512929797172546,
        0.7242519855499268
      ],
      "min": [
        0.32562801241874695,
        0.32580599188804626
      ],
      "type": "VEC2"
    },
    {
      "bufferView": 0,
      "componentType": 5125,
      "count": 8400,
      "type": "SCALAR"
    },
    {
      "bufferView": 2,
      "byteOffset": 36192,
      "componentType": 5126,
      "count": 2170,
      "max": [
        1.2214070558547974,
        0.11505399644374847,
        1.9885729551315308
      ],
      "min": [
        -1.2214070558547974,
        -2.070046901702881,
        0.8627349734306335
      ],
      "type": "VEC3"
    },
    {
      "bufferView": 2,
      "byteOffset": 62232,
      "componentType": 5126,
      "count": 2170,
      "max": [
        0.9961189031600952,
        0.9973974823951721,
        0.999958872795105
      ],
      "min": [
        -0.9961189031600952,
        -0.9976989030838013,
        -0.9973783493041992
      ],
      "type": "VEC3"
    },
    {
      "bufferView": 3,
      "byteOffset": 24128,
      "componentType": 5126,
      "count": 2170,
      "max": [
        0.9987835884094238,
        0.9967280030250549,
        0.9976990222930908,
        1.0
      ],
      "min": [
        -0.9987881183624268,
        -0.9905580282211304,
        -0.9973974227905273,
        1.0
      ],
      "type": "VEC4"
    },
    {
      "bufferView": 1,
      "byteOffset": 12064,
      "componentType": 5126,
      "count": 2170,
      "max": [
        0.9434559941291809,
        0.93858402967453
      ],
      "min": [
        0.8754839897155762,
        0.0
      ],
      "type": "VEC2"
    },
    {
      "bufferView": 0,
      "byteOffset": 33600,
      "componentType": 5125,
      "count": 11784,
      "type": "SCALAR"
    },
    {
      "bufferView": 2,
      "byteOffset": 88272,
      "componentType": 5126,
      "count": 714,
      "max": [
        0.4460639953613281,
        -0.9159809947013855,
        1.8470590114593506
      ],
      "min": [
        -0.4459820091724396,
        -1.2971680164337158,
        0.1266220062971115
      ],
      "type": "VEC3"
    },
    {
      "bufferView": 2,
      "byteOffset": 96840,
      "componentType": 5126,
      "count": 714,
      "max": [
        0.9976319074630737,
        0.9997147917747498,
        0.9972060918807983
      ],
      "min": [
        -0.9976215362548828,
        -0.9998422265052795,
        -0.9980552196502686
      ],
      "type": "VEC3"
    },
    {
      "bufferView": 3,
      "byteOffset": 58848,
      "componentType": 5126,
      "count": 714,
      "max": [
        0.5436713099479675,
        0.9957923889160156,
        0.8914860486984253,
        1.0
      ],
      "min": [
        -0.9994660019874573,
        -0.9967475533485413,
        -0.8664889931678772,
        1.0
      ],
      "type": "VEC4"
    },
    {
      "bufferView": 1,
      "byteOffset": 29424,
      "componentType": 5126,
      "count": 714,
      "max": [
        0.7771040201187134,
        0.5654240250587463
      ],
      "min": [
        0.0,
        0.0
      ],
      "type": "VEC2"
    },
    {
      "bufferView": 0,
      "byteOffset": 80736,
      "componentType": 5125,
      "count": 4044,
      "type": "SCALAR"
    },
    {
      "bufferView": 2,
      "byteOffset": 105408,
      "componentType": 5126,
      "count": 9440,
      "max": [
        1.2724599838256836,
        0.5930449962615967,
        1.8449280261993408
      ],
      "min": [
        -1.2782520055770874,
        -1.9628009796142578,
        -0.8959320187568665
      ],
      "type": "VEC3"
    },
    {
      "bufferView": 2,
      "byteOffset": 218688,
      "componentType": 5126,
      "count": 9440,
      "max": [
        0.9999821186065674,
        0.9999794960021973,
        0.9999855756759644
      ],
      "min": [
        -0.999995231628418,
        -0.9983912706375122,
        -0.9999920129776001
      ],
      "type": "VEC3"
    },
    {
      "bufferView": 3,
      "byteOffset": 70272,
      "componentType": 5126,
      "count": 9440,
      "max": [
        1.0,
        0.9999635219573975,
        0.9963216185569763,
        1.0
      ],
      "min": [
        -1.0,
        -0.9994509816169739,
        -0.9997550249099731,
        1.0
      ],
      "type": "VEC4"
    },
    {
      "bufferView": 1,
      "byteOffset": 35136,
      "componentType": 5126,
      "count": 9440,
      "max": [
        1.0,
        0.984607994556427
      ],
      "min": [
        0.0,
        0.0
      ],
      "type": "VEC2"
    },
    {
      "bufferView": 0,
      "byteOffset": 96912,
      "componentType": 5125,
      "count": 51516,
      "type": "SCALAR"
    },
    {
      "bufferView": 2,
      "byteOffset": 331968,
      "componentType": 5126,
      "count": 9940,
      "max": [
        1.4128190279006958,
        0.7014510035514832,
        1.2554240226745605
      ],
      "min": [
        -1.4128190279006958,
        -1.6515419483184814,
        -1.8107479810714722
      ],
      "type": "VEC3"
    },
    {
      "bufferView": 2,
      "byteOffset": 451248,
      "componentType": 5126,
      "count": 9940,
      "max": [
        0.9998610019683838,
        0.9999998807907104,
        0.9999794960021973
      ],
      "min": [
        -0.9998610019683838,
        -0.9999963045120239,
        -0.9999746084213257
      ],
      "type": "VEC3"
    },
    {
      "bufferView": 3,
      "byteOffset": 221312,
      "componentType": 5126,
      "count": 9940,
      "max": [
        0.9998320937156677,
        0.999772846698761,
        0.9999944567680359,
        1.0
      ],
      "min": [
        -0.9998716711997986,
        -0.9970105886459351,
        -0.9999755024909973,
        1.0
      ],
      "type": "VEC4"
    },
    {
      "bufferView": 1,
      "byteOffset": 110656,
      "componentType": 5126,
      "count": 9940,
      "max": [
        0.9971969723701477,
        0.9735050201416016
      ],
      "min": [
        0.1994899958372116,
        0.0
      ],
      "type": "VEC2"
    },
    {
      "bufferView": 0,
      "byteOffset": 302976,
      "componentType": 5125,
      "count": 55044,
      "type": "SCALAR"
    }
  ],
  "asset": {
    "extras": {
      "author": "Sergei.Nekludau (https://sketchfab.com/neforekid)",
      "license": "CC-BY-4.0 (http://creativecommons.org/licenses/by/4.0/)",
      "source": "https://sketchfab.com/3d-models/larynx-model-c2ffa5fc50ad4302baf58c2f9d49b9d4",
      "title": "larynx_model"
    },
    "generator": "Sketchfab-15.13.0",
    "version": "2.0"
  },
  "bufferViews": [
    {
      "buffer": 0,
      "byteLength": 523152,
      "name": "floatBufferViews",
      "target": 34963
    },
    {
      "buffer": 0,
      "byteLength": 190176,
      "byteOffset": 523152,
      "byteStride": 8,
      "name": "floatBufferViews",
      "target": 34962
    },
    {
      "buffer": 0,
      "byteLength": 570528,
      "byteOffset": 713328,
      "byteStride": 12,
      "name": "floatBufferViews",
      "target": 34962
    },
    {
      "buffer": 0,
      "byteLength": 380352,
      "byteOffset": 1283856,
      "byteStride": 16,
      "name": "floatBufferViews",
      "target": 34962
    }
  ],
  "buffers": [
    {
      "byteLength": 1664208,
      "uri": "scene.bin"
    }
  ],
  "images": [
    {
      "uri": "textures/Default_OBJ_baseColor.jpeg"
    },
    {
      "uri": "textures/Default_OBJ_metallicRoughness.png"
    },
    {
      "uri": "textures/Default_OBJ_normal.png"
    },
    {
      "uri": "textures/Material.001_normal.png"
    },
    {
      "uri": "textures/Material.002_normal.png"
    },
    {
      "uri": "textures/checker_baseColor.jpeg"
    },
    {
      "uri": "textures/checker_metallicRoughness.png"
    },
    {
      "uri": "textures/checker_normal.png"
    }
  ],
  "materials": [
    {
      "doubleSided": true,
      "name": "Default_OBJ",
      "normalTexture": {
        "index": 2
      },
      "occlusionTexture": {
        "index": 1
      },
      "pbrMetallicRoughness": {
        "baseColorTexture": {
          "index": 0
        },
        "metallicRoughnessTexture": {
          "index": 1
        }
      }
    },
    {
      "doubleSided": true,
      "name": "Material.001",
      "normalTexture": {
        "index": 3
      },
      "pbrMetallicRoughness": {
        "baseColorFactor": [
          1.0,
          0.5612388103215987,
          0.6009508928088453,
          1.0
        ],
        "metallicFactor": 0.0,
        "roughnessFactor": 0.6
      }
    },
    {
      "doubleSided": true,
      "name": "Material.002",
      "normalTexture": {
        "index": 4
      },
      "pbrMetallicRoughness": {
        "baseColorFactor": [
          0.9363731365071117,
          1.0,
          0.5259747095201842,
          1.0
        ],
        "metallicFactor": 0.0,
        "roughnessFactor": 0.6
      }
    },
    {
      "doubleSided": true,
      "name": "checker",
      "normalTexture": {
        "index": 7
      },
      "occlusionTexture": {
        "index": 6
      },
      "pbrMetallicRoughness": {
        "baseColorTexture": {
          "index": 5
        },
        "metallicRoughnessTexture": {
          "index": 6
        }
      }
    }
  ],
  "meshes": [
    {
      "name": "Object_0",
      "primitives": [
        {
          "attributes": {
            "NORMAL": 1,
            "POSITION": 0,
            "TANGENT": 2,
            "TEXCOORD_0": 3
          },
          "indices": 4,
          "material": 2,
          "mode": 4
        }
      ]
    },
    {
      "name": "Object_1",
      "primitives": [
        {
          "attributes": {
            "NORMAL": 6,
            "POSITION": 5,
            "TANGENT": 7,
            "TEXCOORD_0": 8
          },
          "indices": 9,
          "material": 3,
          "mode": 4
        }
      ]
    },
    {
      "name": "Object_2",
      "primitives": [
        {
          "attributes": {
            "NORMAL": 11,
            "POSITION": 10,
            "TANGENT": 12,
            "TEXCOORD_0": 13
          },
          "indices": 14,
          "material": 1,
          "mode": 4
        }
      ]
    },
    {
      "name": "Object_3",
      "primitives": [
        {
          "attributes": {
            "NORMAL": 16,
            "POSITION": 15,
            "TANGENT": 17,
            "TEXCOORD_0": 18
          },
          "indices": 19,
          "material": 0,
          "mode": 4
        }
      ]
    },
    {
      "name": "Object_4",
      "primitives": [
        {
          "attributes": {
            "NORMAL": 21,
            "POSITION": 20,
            "TANGENT": 22,
            "TEXCOORD_0": 23
          },
          "indices": 24,
          "material": 0,
          "mode": 4
        }
      ]
    }
  ],
  "nodes": [
    {
      "children": [
        1
      ],
      "matrix": [
        1.0,
        0.0,
        0.0,
        0.0,
        0.0,
        2.220446049250313e-16,
        -1.0,
        0.0,
        0.0,
        1.0,
        2.220446049250313e-16,
        0.0,
        0.0,
        0.0,
        0.0,
        1.0
      ],
      "name": "Sketchfab_model"
    },
    {
      "children": [
        2,
        3,
        4,
        5,
        6
      ],
      "name": "low_unw.obj.cleaner.materialmerger.gles"
    },
    {
      "mesh": 0,
      "name": "Object_2"
    },
    {
      "mesh": 1,
      "name": "Object_3"
    },
    {
      "mesh": 2,
      "name": "Object_4"
    },
    {
      "mesh": 3,
      "name": "Object_5"
    },
    {
      "mesh": 4,
      "name": "Object_6"
    }
  ],
  "samplers": [
    {
      "magFilter": 9729,
      "minFilter": 9987,
      "wrapS": 10497,
      "wrapT": 10497
    }
  ],
  "scene": 0,
  "scenes": [
    {
      "name": "Sketchfab_Scene",
      "nodes": [
        0
      ]
    }
  ],
  "textures": [
    {
      "sampler": 0,
      "source": 0
    },
    {
      "sampler": 0,
      "source": 1
    },
    {
      "sampler": 0,
      "source": 2
    },
    {
      "sampler": 0,
      "source": 3
    },
    {
      "sampler": 0,
      "source": 4
    },
    {
      "sampler": 0,
      "source": 5
    },
    {
      "sampler": 0,
      "source": 6
    },
    {
      "sampler": 0,
      "source": 7
    }
  ]
}
