{
  "accessors": [
    {
      "bufferView": 2,
      "componentType": 5126,
      "count": 19093,
      "max": [
        9.17314624786377,
        23.631114959716797,
        10.125554084777832
      ],
      "min": [
        -9.17314624786377,
        0.21418723464012146,
        -5.776210784912109
      ],
      "type": "VEC3"
    },
    {
      "bufferView": 2,
      "byteOffset": 229116,
      "componentType": 5126,
      "count": 19093,
      "max": [
        0.9999467730522156,
        0.9999772906303406,
        0.9999986886978149
      ],
      "min": [
        -0.9999455213546753,
        -0.9999884366989136,
        -0.9999994039535522
      ],
      "type": "VEC3"
    },
    {
      "bufferView": 1,
      "componentType": 5126,
      "count": 19093,
      "max": [
        1.0,
        0.9760369062423706
      ],
      "min": [
        0.0,
        0.0
      ],
      "type": "VEC2"
    },
    {
      "bufferView": 0,
      "componentType": 5125,
      "count": 109386,
      "type": "SCALAR"
    },
    {
      "bufferView": 2,
      "byteOffset": 458232,
      "componentType": 5126,
      "count": 622,
      "max": [
        3.6653354167938232,
        16.759929656982422,
        7.888190269470215
      ],
      "min": [
        1.3672361373901367,
        14.458648681640625,
        5.524329662322998
      ],
      "type": "VEC3"
    },
    {
      "bufferView": 2,
      "byteOffset": 465696,
      "componentType": 5126,
      "count": 622,
      "max": [
        0.9970265030860901,
        0.9982161521911621,
        0.9997693300247192
      ],
      "min": [
        -0.9970224499702454,
        -0.9982161521911621,
        -0.9953592419624329
      ],
      "type": "VEC3"
    },
    {
      "bufferView": 1,
      "byteOffset": 152744,
      "componentType": 5126,
      "count": 622,
      "max": [
        0.9998771548271179,
        0.6097820401191711
      ],
      "min": [
        0.11002746969461441,
        0.0001228205655934289
      ],
      "type": "VEC2"
    },
    {
      "bufferView": 0,
      "byteOffset": 437544,
      "componentType": 5125,
      "count": 3360,
      "type": "SCALAR"
    },
    {
      "bufferView": 2,
      "byteOffset": 473160,
      "componentType": 5126,
      "count": 622,
      "max": [
        -1.3672361373901367,
        16.759933471679688,
        7.888184547424316
      ],
      "min": [
        -3.6653354167938232,
        14.458651542663574,
        5.5243239402771
      ],
      "type": "VEC3"
    },
    {
      "bufferView": 2,
      "byteOffset": 480624,
      "componentType": 5126,
      "count": 622,
      "max": [
        0.9969499707221985,
        0.9982161521911621,
        0.9998701214790344
      ],
      "min": [
        -0.9969503283500671,
        -0.9982162117958069,
        -0.998205304145813
      ],
      "type": "VEC3"
    },
    {
      "bufferView": 1,
      "byteOffset": 157720,
      "componentType": 5126,
      "count": 622,
      "max": [
        0.4998771846294403,
        0.6097820401191711
      ],
      "min": [
        0.00012278494250494987,
        0.00012283195974305272
      ],
      "type": "VEC2"
    },
    {
      "bufferView": 0,
      "byteOffset": 450984,
      "componentType": 5125,
      "count": 3360,
      "type": "SCALAR"
    }
  ],
  "asset": {
    "extras": {
      "author": "pranav623574 (https://sketchfab.com/pranav623574)",
      "license": "CC-BY-4.0 (http://creativecommons.org/licenses/by/4.0/)",
      "source": "https://sketchfab.com/3d-models/head-74c12e0f943f479d81529f4629f9cbff",
      "title": "head"
    },
    "generator": "Sketchfab-16.0.0",
    "version": "2.0"
  },
  "bufferViews": [
    {
      "buffer": 0,
      "byteLength": 464424,
      "name": "floatBufferViews",
      "target": 34963
    },
    {
      "buffer": 0,
      "byteLength": 162696,
      "byteOffset": 464424,
      "byteStride": 8,
      "name": "floatBufferViews",
      "target": 34962
    },
    {
      "buffer": 0,
      "byteLength": 488088,
      "byteOffset": 627120,
      "byteStride": 12,
      "name": "floatBufferViews",
      "target": 34962
    }
  ],
  "buffers": [
    {
      "byteLength": 1115208,
      "uri": "scene.bin"
    }
  ],
  "extensionsUsed": [
    "KHR_materials_clearcoat",
    "KHR_materials_specular"
  ],
  "materials": [
    {
      "doubleSided": true,
      "extensions": {
        "KHR_materials_clearcoat": {
          "clearcoatFactor": 1.0,
          "clearcoatRoughnessFactor": 0.04
        },
        "KHR_materials_specular": {
          "specularColorFactor": [
            1.0,
            1.0,
            1.0
          ],
          "specularFactor": 0.42467591376434866
        }
      },
      "name": "Scene_-_Root",
      "pbrMetallicRoughness": {
        "baseColorFactor": [
          0.7289529120556326,
          0.7289529120556326,
          0.7289529120556326,
          1.0
        ],
        "metallicFactor": 0.05202256080053271,
        "roughnessFactor": 0.2780582011228473
      }
    }
  ],
  "meshes": [
    {
      "name": "polySurface268__0",
      "primitives": [
        {
          "attributes": {
            "NORMAL": 1,
            "POSITION": 0,
            "TEXCOORD_0": 2
          },
          "indices": 3,
          "material": 0,
          "mode": 4
        }
      ]
    },
    {
      "name": "polySurface263.001__0",
      "primitives": [
        {
          "attributes": {
            "NORMAL": 5,
            "POSITION": 4,
            "TEXCOORD_0": 6
          },
          "indices": 7,
          "material": 0,
          "mode": 4
        }
      ]
    },
    {
      "name": "polySurface264__0",
      "primitives": [
        {
          "attributes": {
            "NORMAL": 9,
            "POSITION": 8,
            "TEXCOORD_0": 10
          },
          "indices": 11,
          "material": 0,
          "mode": 4
        }
      ]
    }
  ],
  "nodes": [
    {
      "children": [
        1
      ],
      "matrix": [
        1.0,
        0.0,
        0.0,
        0.0,
        0.0,
        2.220446049250313e-16,
        -1.0,
        0.0,
        0.0,
        1.0,
        2.220446049250313e-16,
        0.0,
        0.0,
        0.0,
        0.0,
        1.0
      ],
      "name": "Sketchfab_model"
    },
    {
      "children": [
        2
      ],
      "matrix": [
        0.009999999776482582,
        0.0,
        0.0,
        0.0,
        0.0,
        0.0,
        0.009999999776482582,
        0.0,
        0.0,
        -0.009999999776482582,
        0.0,
        0.0,
        0.0,
        0.0,
        0.0,
        1.0
      ],
      "name": "4f22fe12e02c435cb7732c0b8f702f24.fbx"
    },
    {
      "children": [
        3,
        5,
        7
      ],
      "name": "RootNode"
    },
    {
      "children": [
        4
      ],
      "name": "polySurface268"
    },
    {
      "mesh": 0,
      "name": "polySurface268__0"
    },
    {
      "children": [
        6
      ],
      "name": "polySurface263.001"
    },
    {
      "mesh": 1,
      "name": "polySurface263.001__0"
    },
    {
      "children": [
        8
      ],
      "name": "polySurface264"
    },
    {
      "mesh": 2,
      "name": "polySurface264__0"
    }
  ],
  "scene": 0,
  "scenes": [
    {
      "name": "Sketchfab_Scene",
      "nodes": [
        0
      ]
    }
  ]
}
